<?xml version="1.0" encoding="UTF-8" standalone="no"?>
<!DOCTYPE svg PUBLIC "-//W3C//DTD SVG 1.1//EN"
 "http://www.w3.org/Graphics/SVG/1.1/DTD/svg11.dtd">
<!-- Generated by graphviz version 2.40.1 (20161225.0304)
 -->
<!-- Title: controllers_diagram Pages: 1 -->
<svg width="659pt" height="653pt"
 viewBox="0.00 0.00 659.09 653.00" xmlns="http://www.w3.org/2000/svg" xmlns:xlink="http://www.w3.org/1999/xlink">
<g id="graph0" class="graph" transform="scale(1 1) rotate(0) translate(4 649)">
<title>controllers_diagram</title>
<polygon fill="transparent" stroke="transparent" points="-4,4 -4,-649 655.0898,-649 655.0898,4 -4,4"/>
<!-- _diagram_info -->
<g id="node1" class="node">
<title>_diagram_info</title>
<text text-anchor="start" x="72" y="-154.6" font-family="Times,serif" font-size="13.00" fill="#000000">Controllers diagram</text>
<text text-anchor="start" x="72" y="-141.6" font-family="Times,serif" font-size="13.00" fill="#000000">Date: May 24 2017 &#45; 21:59</text>
<text text-anchor="start" x="72" y="-128.6" font-family="Times,serif" font-size="13.00" fill="#000000">Migration version: 20170522084719</text>
<text text-anchor="start" x="72" y="-115.6" font-family="Times,serif" font-size="13.00" fill="#000000">Generated by RailRoady 1.5.2</text>
<text text-anchor="start" x="72" y="-102.6" font-family="Times,serif" font-size="13.00" fill="#000000">http://railroady.prestonlee.com</text>
</g>
<!-- ApplicationController -->
<g id="node2" class="node">
<title>ApplicationController</title>
<path fill="none" stroke="#000000" d="M380,-144.5C380,-144.5 553.9316,-144.5 553.9316,-144.5 559.9316,-144.5 565.9316,-150.5 565.9316,-156.5 565.9316,-156.5 565.9316,-222.5 565.9316,-222.5 565.9316,-228.5 559.9316,-234.5 553.9316,-234.5 553.9316,-234.5 380,-234.5 380,-234.5 374,-234.5 368,-228.5 368,-222.5 368,-222.5 368,-156.5 368,-156.5 368,-150.5 374,-144.5 380,-144.5"/>
<text text-anchor="middle" x="466.9658" y="-219.3" font-family="Times,serif" font-size="14.00" fill="#000000">ApplicationController</text>
<polyline fill="none" stroke="#000000" points="368,-212.5 565.9316,-212.5 "/>
<polyline fill="none" stroke="#000000" points="368,-188.5 565.9316,-188.5 "/>
<text text-anchor="start" x="376" y="-173.3" font-family="Times,serif" font-size="14.00" fill="#000000">configure_permitted_parameters</text>
<polyline fill="none" stroke="#000000" points="368,-166.5 565.9316,-166.5 "/>
<text text-anchor="start" x="376" y="-151.3" font-family="Times,serif" font-size="14.00" fill="#000000">_layout</text>
</g>
<!-- BlogsController -->
<g id="node3" class="node">
<title>BlogsController</title>
<path fill="none" stroke="#000000" d="M332,-352.5C332,-352.5 414.2207,-352.5 414.2207,-352.5 420.2207,-352.5 426.2207,-358.5 426.2207,-364.5 426.2207,-364.5 426.2207,-556.5 426.2207,-556.5 426.2207,-562.5 420.2207,-568.5 414.2207,-568.5 414.2207,-568.5 332,-568.5 332,-568.5 326,-568.5 320,-562.5 320,-556.5 320,-556.5 320,-364.5 320,-364.5 320,-358.5 326,-352.5 332,-352.5"/>
<text text-anchor="middle" x="373.1104" y="-553.3" font-family="Times,serif" font-size="14.00" fill="#000000">BlogsController</text>
<polyline fill="none" stroke="#000000" points="320,-546.5 426.2207,-546.5 "/>
<text text-anchor="start" x="328" y="-531.3" font-family="Times,serif" font-size="14.00" fill="#000000">update</text>
<text text-anchor="start" x="328" y="-517.3" font-family="Times,serif" font-size="14.00" fill="#000000">create</text>
<text text-anchor="start" x="328" y="-503.3" font-family="Times,serif" font-size="14.00" fill="#000000">destroy</text>
<text text-anchor="start" x="328" y="-489.3" font-family="Times,serif" font-size="14.00" fill="#000000">edit</text>
<text text-anchor="start" x="328" y="-475.3" font-family="Times,serif" font-size="14.00" fill="#000000">index</text>
<text text-anchor="start" x="328" y="-461.3" font-family="Times,serif" font-size="14.00" fill="#000000">new</text>
<text text-anchor="start" x="328" y="-447.3" font-family="Times,serif" font-size="14.00" fill="#000000">show</text>
<text text-anchor="start" x="328" y="-433.3" font-family="Times,serif" font-size="14.00" fill="#000000">comfirm</text>
<polyline fill="none" stroke="#000000" points="320,-426.5 426.2207,-426.5 "/>
<polyline fill="none" stroke="#000000" points="320,-402.5 426.2207,-402.5 "/>
<text text-anchor="start" x="328" y="-387.3" font-family="Times,serif" font-size="14.00" fill="#000000">_layout</text>
<text text-anchor="start" x="328" y="-373.3" font-family="Times,serif" font-size="14.00" fill="#000000">blogs_params</text>
<text text-anchor="start" x="328" y="-359.3" font-family="Times,serif" font-size="14.00" fill="#000000">set_blog</text>
</g>
<!-- CommentsController -->
<g id="node4" class="node">
<title>CommentsController</title>
<path fill="none" stroke="#000000" d="M172,-352.5C172,-352.5 282.2139,-352.5 282.2139,-352.5 288.2139,-352.5 294.2139,-358.5 294.2139,-364.5 294.2139,-364.5 294.2139,-500.5 294.2139,-500.5 294.2139,-506.5 288.2139,-512.5 282.2139,-512.5 282.2139,-512.5 172,-512.5 172,-512.5 166,-512.5 160,-506.5 160,-500.5 160,-500.5 160,-364.5 160,-364.5 160,-358.5 166,-352.5 172,-352.5"/>
<text text-anchor="middle" x="227.1069" y="-497.3" font-family="Times,serif" font-size="14.00" fill="#000000">CommentsController</text>
<polyline fill="none" stroke="#000000" points="160,-490.5 294.2139,-490.5 "/>
<text text-anchor="start" x="168" y="-475.3" font-family="Times,serif" font-size="14.00" fill="#000000">create</text>
<text text-anchor="start" x="168" y="-461.3" font-family="Times,serif" font-size="14.00" fill="#000000">destroy</text>
<text text-anchor="start" x="168" y="-447.3" font-family="Times,serif" font-size="14.00" fill="#000000">edit</text>
<text text-anchor="start" x="168" y="-433.3" font-family="Times,serif" font-size="14.00" fill="#000000">update</text>
<polyline fill="none" stroke="#000000" points="160,-426.5 294.2139,-426.5 "/>
<polyline fill="none" stroke="#000000" points="160,-402.5 294.2139,-402.5 "/>
<text text-anchor="start" x="168" y="-387.3" font-family="Times,serif" font-size="14.00" fill="#000000">_layout</text>
<text text-anchor="start" x="168" y="-373.3" font-family="Times,serif" font-size="14.00" fill="#000000">comments_params</text>
<text text-anchor="start" x="168" y="-359.3" font-family="Times,serif" font-size="14.00" fill="#000000">set_comment</text>
</g>
<!-- ContactsController -->
<g id="node5" class="node">
<title>ContactsController</title>
<path fill="none" stroke="#000000" d="M12,-512.5C12,-512.5 110.5381,-512.5 110.5381,-512.5 116.5381,-512.5 122.5381,-518.5 122.5381,-524.5 122.5381,-524.5 122.5381,-632.5 122.5381,-632.5 122.5381,-638.5 116.5381,-644.5 110.5381,-644.5 110.5381,-644.5 12,-644.5 12,-644.5 6,-644.5 0,-638.5 0,-632.5 0,-632.5 0,-524.5 0,-524.5 0,-518.5 6,-512.5 12,-512.5"/>
<text text-anchor="middle" x="61.269" y="-629.3" font-family="Times,serif" font-size="14.00" fill="#000000">ContactsController</text>
<polyline fill="none" stroke="#000000" points="0,-622.5 122.5381,-622.5 "/>
<text text-anchor="start" x="8" y="-607.3" font-family="Times,serif" font-size="14.00" fill="#000000">comfirm</text>
<text text-anchor="start" x="8" y="-593.3" font-family="Times,serif" font-size="14.00" fill="#000000">create</text>
<text text-anchor="start" x="8" y="-579.3" font-family="Times,serif" font-size="14.00" fill="#000000">new</text>
<polyline fill="none" stroke="#000000" points="0,-572.5 122.5381,-572.5 "/>
<polyline fill="none" stroke="#000000" points="0,-548.5 122.5381,-548.5 "/>
<text text-anchor="start" x="8" y="-533.3" font-family="Times,serif" font-size="14.00" fill="#000000">_layout</text>
<text text-anchor="start" x="8" y="-519.3" font-family="Times,serif" font-size="14.00" fill="#000000">contacts_params</text>
</g>
<!-- PoemsController -->
<g id="node6" class="node">
<title>PoemsController</title>
<path fill="none" stroke="#000000" d="M316,-.5C316,-.5 402.8828,-.5 402.8828,-.5 408.8828,-.5 414.8828,-6.5 414.8828,-12.5 414.8828,-12.5 414.8828,-92.5 414.8828,-92.5 414.8828,-98.5 408.8828,-104.5 402.8828,-104.5 402.8828,-104.5 316,-104.5 316,-104.5 310,-104.5 304,-98.5 304,-92.5 304,-92.5 304,-12.5 304,-12.5 304,-6.5 310,-.5 316,-.5"/>
<text text-anchor="middle" x="359.4414" y="-89.3" font-family="Times,serif" font-size="14.00" fill="#000000">PoemsController</text>
<polyline fill="none" stroke="#000000" points="304,-82.5 414.8828,-82.5 "/>
<text text-anchor="start" x="312" y="-67.3" font-family="Times,serif" font-size="14.00" fill="#000000">index</text>
<text text-anchor="start" x="312" y="-53.3" font-family="Times,serif" font-size="14.00" fill="#000000">show</text>
<polyline fill="none" stroke="#000000" points="304,-46.5 414.8828,-46.5 "/>
<polyline fill="none" stroke="#000000" points="304,-22.5 414.8828,-22.5 "/>
<text text-anchor="start" x="312" y="-7.3" font-family="Times,serif" font-size="14.00" fill="#000000">_layout</text>
</g>
<!-- RelationshipsController -->
<g id="node7" class="node">
<title>RelationshipsController</title>
<path fill="none" stroke="#000000" d="M476,-400.5C476,-400.5 601.7656,-400.5 601.7656,-400.5 607.7656,-400.5 613.7656,-406.5 613.7656,-412.5 613.7656,-412.5 613.7656,-492.5 613.7656,-492.5 613.7656,-498.5 607.7656,-504.5 601.7656,-504.5 601.7656,-504.5 476,-504.5 476,-504.5 470,-504.5 464,-498.5 464,-492.5 464,-492.5 464,-412.5 464,-412.5 464,-406.5 470,-400.5 476,-400.5"/>
<text text-anchor="middle" x="538.8828" y="-489.3" font-family="Times,serif" font-size="14.00" fill="#000000">RelationshipsController</text>
<polyline fill="none" stroke="#000000" points="464,-482.5 613.7656,-482.5 "/>
<text text-anchor="start" x="472" y="-467.3" font-family="Times,serif" font-size="14.00" fill="#000000">create</text>
<text text-anchor="start" x="472" y="-453.3" font-family="Times,serif" font-size="14.00" fill="#000000">destroy</text>
<polyline fill="none" stroke="#000000" points="464,-446.5 613.7656,-446.5 "/>
<polyline fill="none" stroke="#000000" points="464,-422.5 613.7656,-422.5 "/>
<text text-anchor="start" x="472" y="-407.3" font-family="Times,serif" font-size="14.00" fill="#000000">_layout</text>
</g>
<!-- TopController -->
<g id="node8" class="node">
<title>TopController</title>
<path fill="none" stroke="#000000" d="M460,-16.5C460,-16.5 531.1191,-16.5 531.1191,-16.5 537.1191,-16.5 543.1191,-22.5 543.1191,-28.5 543.1191,-28.5 543.1191,-94.5 543.1191,-94.5 543.1191,-100.5 537.1191,-106.5 531.1191,-106.5 531.1191,-106.5 460,-106.5 460,-106.5 454,-106.5 448,-100.5 448,-94.5 448,-94.5 448,-28.5 448,-28.5 448,-22.5 454,-16.5 460,-16.5"/>
<text text-anchor="middle" x="495.5596" y="-91.3" font-family="Times,serif" font-size="14.00" fill="#000000">TopController</text>
<polyline fill="none" stroke="#000000" points="448,-84.5 543.1191,-84.5 "/>
<text text-anchor="start" x="456" y="-69.3" font-family="Times,serif" font-size="14.00" fill="#000000">index</text>
<polyline fill="none" stroke="#000000" points="448,-62.5 543.1191,-62.5 "/>
<polyline fill="none" stroke="#000000" points="448,-38.5 543.1191,-38.5 "/>
<text text-anchor="start" x="456" y="-23.3" font-family="Times,serif" font-size="14.00" fill="#000000">_layout</text>
</g>
<!-- Users::OmniauthCallbacksController -->
<g id="node9" class="node">
<title>Users::OmniauthCallbacksController</title>
<path fill="none" stroke="#000000" d="M124,-208.5C124,-208.5 324.4072,-208.5 324.4072,-208.5 330.4072,-208.5 336.4072,-214.5 336.4072,-220.5 336.4072,-220.5 336.4072,-300.5 336.4072,-300.5 336.4072,-306.5 330.4072,-312.5 324.4072,-312.5 324.4072,-312.5 124,-312.5 124,-312.5 118,-312.5 112,-306.5 112,-300.5 112,-300.5 112,-220.5 112,-220.5 112,-214.5 118,-208.5 124,-208.5"/>
<text text-anchor="middle" x="224.2036" y="-297.3" font-family="Times,serif" font-size="14.00" fill="#000000">Users::OmniauthCallbacksController</text>
<polyline fill="none" stroke="#000000" points="112,-290.5 336.4072,-290.5 "/>
<text text-anchor="start" x="120" y="-275.3" font-family="Times,serif" font-size="14.00" fill="#000000">facebook</text>
<text text-anchor="start" x="120" y="-261.3" font-family="Times,serif" font-size="14.00" fill="#000000">twitter</text>
<polyline fill="none" stroke="#000000" points="112,-254.5 336.4072,-254.5 "/>
<polyline fill="none" stroke="#000000" points="112,-230.5 336.4072,-230.5 "/>
<text text-anchor="start" x="120" y="-215.3" font-family="Times,serif" font-size="14.00" fill="#000000">_layout</text>
</g>
<!-- Users::RegistrationsController -->
<g id="node10" class="node">
<title>Users::RegistrationsController</title>
<path fill="none" stroke="#000000" d="M476,-272.5C476,-272.5 639.0898,-272.5 639.0898,-272.5 645.0898,-272.5 651.0898,-278.5 651.0898,-284.5 651.0898,-284.5 651.0898,-350.5 651.0898,-350.5 651.0898,-356.5 645.0898,-362.5 639.0898,-362.5 639.0898,-362.5 476,-362.5 476,-362.5 470,-362.5 464,-356.5 464,-350.5 464,-350.5 464,-284.5 464,-284.5 464,-278.5 470,-272.5 476,-272.5"/>
<text text-anchor="middle" x="557.5449" y="-347.3" font-family="Times,serif" font-size="14.00" fill="#000000">Users::RegistrationsController</text>
<polyline fill="none" stroke="#000000" points="464,-340.5 651.0898,-340.5 "/>
<text text-anchor="start" x="472" y="-325.3" font-family="Times,serif" font-size="14.00" fill="#000000">build_resources</text>
<polyline fill="none" stroke="#000000" points="464,-318.5 651.0898,-318.5 "/>
<polyline fill="none" stroke="#000000" points="464,-294.5 651.0898,-294.5 "/>
<text text-anchor="start" x="472" y="-279.3" font-family="Times,serif" font-size="14.00" fill="#000000">_layout</text>
</g>
<!-- UsersController -->
<g id="node11" class="node">
<title>UsersController</title>
<path fill="none" stroke="#000000" d="M28,-368.5C28,-368.5 109.4277,-368.5 109.4277,-368.5 115.4277,-368.5 121.4277,-374.5 121.4277,-380.5 121.4277,-380.5 121.4277,-460.5 121.4277,-460.5 121.4277,-466.5 115.4277,-472.5 109.4277,-472.5 109.4277,-472.5 28,-472.5 28,-472.5 22,-472.5 16,-466.5 16,-460.5 16,-460.5 16,-380.5 16,-380.5 16,-374.5 22,-368.5 28,-368.5"/>
<text text-anchor="middle" x="68.7139" y="-457.3" font-family="Times,serif" font-size="14.00" fill="#000000">UsersController</text>
<polyline fill="none" stroke="#000000" points="16,-450.5 121.4277,-450.5 "/>
<text text-anchor="start" x="24" y="-435.3" font-family="Times,serif" font-size="14.00" fill="#000000">index</text>
<text text-anchor="start" x="24" y="-421.3" font-family="Times,serif" font-size="14.00" fill="#000000">show</text>
<polyline fill="none" stroke="#000000" points="16,-414.5 121.4277,-414.5 "/>
<polyline fill="none" stroke="#000000" points="16,-390.5 121.4277,-390.5 "/>
<text text-anchor="start" x="24" y="-375.3" font-family="Times,serif" font-size="14.00" fill="#000000">_layout</text>
</g>
</g>
</svg>
