<?xml version="1.0" encoding="UTF-8" standalone="no"?>
<!DOCTYPE svg PUBLIC "-//W3C//DTD SVG 1.1//EN"
 "http://www.w3.org/Graphics/SVG/1.1/DTD/svg11.dtd">
<!-- Generated by graphviz version 2.40.1 (20161225.0304)
 -->
<!-- Title: models_diagram Pages: 1 -->
<svg width="701pt" height="240pt"
 viewBox="0.00 0.00 700.69 240.00" xmlns="http://www.w3.org/2000/svg" xmlns:xlink="http://www.w3.org/1999/xlink">
<g id="graph0" class="graph" transform="scale(1 1) rotate(0) translate(4 236)">
<title>models_diagram</title>
<polygon fill="transparent" stroke="transparent" points="-4,4 -4,-236 696.6877,-236 696.6877,4 -4,4"/>
<!-- _diagram_info -->
<g id="node1" class="node">
<title>_diagram_info</title>
<text text-anchor="start" x="8" y="-217.6" font-family="Times,serif" font-size="13.00" fill="#000000">Models diagram</text>
<text text-anchor="start" x="8" y="-204.6" font-family="Times,serif" font-size="13.00" fill="#000000">Date: May 24 2017 &#45; 21:59</text>
<text text-anchor="start" x="8" y="-191.6" font-family="Times,serif" font-size="13.00" fill="#000000">Migration version: 20170522084719</text>
<text text-anchor="start" x="8" y="-178.6" font-family="Times,serif" font-size="13.00" fill="#000000">Generated by RailRoady 1.5.2</text>
<text text-anchor="start" x="8" y="-165.6" font-family="Times,serif" font-size="13.00" fill="#000000">http://railroady.prestonlee.com</text>
</g>
<!-- Ability -->
<g id="node2" class="node">
<title>Ability</title>
<polygon fill="none" stroke="#000000" points="281.3577,-213.5 226.0178,-213.5 226.0178,-177.5 281.3577,-177.5 281.3577,-213.5"/>
<text text-anchor="middle" x="253.6877" y="-191.3" font-family="Times,serif" font-size="14.00" fill="#000000">Ability</text>
</g>
<!-- Blog -->
<g id="node3" class="node">
<title>Blog</title>
<ellipse fill="none" stroke="#000000" cx="253.6877" cy="-91" rx="27.113" ry="18"/>
<text text-anchor="middle" x="253.6877" y="-86.8" font-family="Times,serif" font-size="14.00" fill="#000000">Blog</text>
</g>
<!-- Comment -->
<g id="node4" class="node">
<title>Comment</title>
<ellipse fill="none" stroke="#000000" cx="280.6877" cy="-18" rx="44.9768" ry="18"/>
<text text-anchor="middle" x="280.6877" y="-13.8" font-family="Times,serif" font-size="14.00" fill="#000000">Comment</text>
</g>
<!-- Blog&#45;&gt;Comment -->
<g id="edge1" class="edge">
<title>Blog&#45;&gt;Comment</title>
<path fill="none" stroke="#863d94" d="M263.0116,-65.7909C265.3898,-59.3612 267.9597,-52.4129 270.3838,-45.8589"/>
<ellipse fill="none" stroke="#863d94" cx="261.6113" cy="-69.5771" rx="4" ry="4"/>
<polygon fill="#863d94" stroke="#863d94" points="270.5554,-45.3947 278.245,-37.5767 272.2899,-40.7052 274.0244,-36.0157 274.0244,-36.0157 274.0244,-36.0157 272.2899,-40.7052 269.8038,-34.4546 270.5554,-45.3947 270.5554,-45.3947"/>
</g>
<!-- Contact -->
<g id="node5" class="node">
<title>Contact</title>
<ellipse fill="none" stroke="#000000" cx="582.6877" cy="-195.5" rx="37.7266" ry="18"/>
<text text-anchor="middle" x="582.6877" y="-191.3" font-family="Times,serif" font-size="14.00" fill="#000000">Contact</text>
</g>
<!-- Poem -->
<g id="node6" class="node">
<title>Poem</title>
<polygon fill="none" stroke="#000000" points="692.6877,-213.5 638.6877,-213.5 638.6877,-177.5 692.6877,-177.5 692.6877,-213.5"/>
<text text-anchor="middle" x="665.6877" y="-191.3" font-family="Times,serif" font-size="14.00" fill="#000000">Poem</text>
</g>
<!-- Relationship -->
<g id="node7" class="node">
<title>Relationship</title>
<ellipse fill="none" stroke="#000000" cx="391.6877" cy="-91" rx="54.6248" ry="18"/>
<text text-anchor="middle" x="391.6877" y="-86.8" font-family="Times,serif" font-size="14.00" fill="#000000">Relationship</text>
</g>
<!-- User -->
<g id="node8" class="node">
<title>User</title>
<ellipse fill="none" stroke="#000000" cx="326.6877" cy="-195.5" rx="27" ry="18"/>
<text text-anchor="middle" x="326.6877" y="-191.3" font-family="Times,serif" font-size="14.00" fill="#000000">User</text>
</g>
<!-- User&#45;&gt;Blog -->
<g id="edge2" class="edge">
<title>User&#45;&gt;Blog</title>
<path fill="none" stroke="#2845f1" d="M310.6866,-172.5943C298.999,-155.8633 283.1615,-133.1919 271.147,-115.993"/>
<ellipse fill="none" stroke="#2845f1" cx="312.9908" cy="-175.8927" rx="4" ry="4"/>
<polygon fill="#2845f1" stroke="#2845f1" points="270.9816,-115.7562 268.9438,-104.9813 268.1182,-111.6573 265.2548,-107.5583 265.2548,-107.5583 265.2548,-107.5583 268.1182,-111.6573 261.5658,-110.1354 270.9816,-115.7562 270.9816,-115.7562"/>
</g>
<!-- User&#45;&gt;Comment -->
<g id="edge3" class="edge">
<title>User&#45;&gt;Comment</title>
<path fill="none" stroke="#d7eb7a" d="M319.9006,-169.3104C311.3274,-136.2292 296.6393,-79.5524 287.879,-45.749"/>
<ellipse fill="none" stroke="#d7eb7a" cx="321.0204" cy="-173.6315" rx="4" ry="4"/>
<polygon fill="#d7eb7a" stroke="#d7eb7a" points="287.8727,-45.7243 289.7201,-34.9152 286.6183,-40.8842 285.364,-36.0441 285.364,-36.0441 285.364,-36.0441 286.6183,-40.8842 281.0079,-37.173 287.8727,-45.7243 287.8727,-45.7243"/>
</g>
<!-- User&#45;&gt;Relationship -->
<g id="edge4" class="edge">
<title>User&#45;&gt;Relationship</title>
<path fill="none" stroke="#dfdaee" d="M338.2831,-170.6615C344.8519,-157.3572 353.565,-140.8939 362.6877,-127 365.0169,-123.4527 367.621,-119.835 370.2872,-116.3273"/>
<ellipse fill="none" stroke="#dfdaee" cx="336.4242" cy="-174.4885" rx="4" ry="4"/>
<polygon fill="#dfdaee" stroke="#dfdaee" points="370.3263,-116.2777 380.0534,-111.2146 373.4235,-112.3524 376.5207,-108.4272 376.5207,-108.4272 376.5207,-108.4272 373.4235,-112.3524 372.9879,-105.6397 370.3263,-116.2777 370.3263,-116.2777"/>
</g>
<!-- User&#45;&gt;Relationship -->
<g id="edge5" class="edge">
<title>User&#45;&gt;Relationship</title>
<path fill="none" stroke="#ec3c29" d="M342.4355,-172.308C348.8463,-162.7012 356.248,-151.3942 362.6877,-141 367.3468,-133.4799 372.2361,-125.2098 376.6444,-117.5981"/>
<ellipse fill="none" stroke="#ec3c29" cx="340.1986" cy="-175.6434" rx="4" ry="4"/>
<polygon fill="#ec3c29" stroke="#ec3c29" points="376.7547,-117.406 385.6375,-110.9759 379.245,-113.0703 381.7354,-108.7346 381.7354,-108.7346 381.7354,-108.7346 379.245,-113.0703 377.8332,-106.4933 376.7547,-117.406 376.7547,-117.406"/>
<text text-anchor="middle" x="430.1672" y="-129.8" font-family="Times,serif" font-size="14.00" fill="#000000">reverse_relationships</text>
</g>
<!-- User&#45;&gt;User -->
<g id="edge6" class="edge">
<title>User&#45;&gt;User</title>
<path fill="none" stroke="#d52702" d="M362.8078,-200.5868C368.11,-199.7856 371.6877,-198.09 371.6877,-195.5 371.6877,-192.91 368.11,-191.2144 362.8078,-190.4132"/>
<polygon fill="#d52702" stroke="#d52702" points="362.5717,-200.5983 352.3623,-196.5961 357.5778,-200.8445 352.5838,-201.0907 352.5838,-201.0907 352.5838,-201.0907 357.5778,-200.8445 352.8054,-205.5852 362.5717,-200.5983 362.5717,-200.5983"/>
<polygon fill="#d52702" stroke="#d52702" points="362.5717,-190.4017 352.8054,-185.4148 357.5778,-190.1555 352.5838,-189.9093 352.5838,-189.9093 352.5838,-189.9093 357.5778,-190.1555 352.3623,-194.4039 362.5717,-190.4017 362.5717,-190.4017"/>
<text text-anchor="middle" x="414.4568" y="-191.3" font-family="Times,serif" font-size="14.00" fill="#000000">followed_users</text>
</g>
<!-- User&#45;&gt;User -->
<g id="edge7" class="edge">
<title>User&#45;&gt;User</title>
<path fill="none" stroke="#91daf4" d="M361.0204,-204.5979C400.6479,-209.313 457.2258,-206.2803 457.2258,-195.5 457.2258,-184.7197 400.6479,-181.687 361.0204,-186.4021"/>
<polygon fill="#91daf4" stroke="#91daf4" points="361.0064,-204.596 351.7382,-198.7351 356.0561,-203.8932 351.1057,-203.1904 351.1057,-203.1904 351.1057,-203.1904 356.0561,-203.8932 350.4732,-207.6458 361.0064,-204.596 361.0064,-204.596"/>
<polygon fill="#91daf4" stroke="#91daf4" points="361.0064,-186.404 350.4732,-183.3542 356.0561,-187.1068 351.1057,-187.8096 351.1057,-187.8096 351.1057,-187.8096 356.0561,-187.1068 351.7382,-192.2649 361.0064,-186.404 361.0064,-186.404"/>
<text text-anchor="middle" x="483.6638" y="-191.3" font-family="Times,serif" font-size="14.00" fill="#000000">followers</text>
</g>
</g>
</svg>
