<?xml version="1.0" encoding="UTF-8" standalone="no"?>
<!DOCTYPE svg PUBLIC "-//W3C//DTD SVG 1.1//EN"
 "http://www.w3.org/Graphics/SVG/1.1/DTD/svg11.dtd">
<!-- Generated by graphviz version 2.40.1 (20161225.0304)
 -->
<!-- Title: models_diagram Pages: 1 -->
<svg width="1137pt" height="678pt"
 viewBox="0.00 0.00 1136.69 678.00" xmlns="http://www.w3.org/2000/svg" xmlns:xlink="http://www.w3.org/1999/xlink">
<g id="graph0" class="graph" transform="scale(1 1) rotate(0) translate(4 674)">
<title>models_diagram</title>
<polygon fill="transparent" stroke="transparent" points="-4,4 -4,-674 1132.6877,-674 1132.6877,4 -4,4"/>
<!-- _diagram_info -->
<g id="node1" class="node">
<title>_diagram_info</title>
<text text-anchor="start" x="8" y="-515.6" font-family="Times,serif" font-size="13.00" fill="#000000">Models diagram</text>
<text text-anchor="start" x="8" y="-502.6" font-family="Times,serif" font-size="13.00" fill="#000000">Date: May 24 2017 &#45; 21:58</text>
<text text-anchor="start" x="8" y="-489.6" font-family="Times,serif" font-size="13.00" fill="#000000">Migration version: 20170522084719</text>
<text text-anchor="start" x="8" y="-476.6" font-family="Times,serif" font-size="13.00" fill="#000000">Generated by RailRoady 1.5.2</text>
<text text-anchor="start" x="8" y="-463.6" font-family="Times,serif" font-size="13.00" fill="#000000">http://railroady.prestonlee.com</text>
</g>
<!-- Ability -->
<g id="node2" class="node">
<title>Ability</title>
<polygon fill="none" stroke="#000000" points="225.8533,-471.5 225.8533,-515.5 281.5222,-515.5 281.5222,-471.5 225.8533,-471.5"/>
<text text-anchor="middle" x="253.6877" y="-500.3" font-family="Times,serif" font-size="14.00" fill="#000000">Ability</text>
<polyline fill="none" stroke="#000000" points="225.8533,-493.5 281.5222,-493.5 "/>
<text text-anchor="middle" x="253.6877" y="-478.3" font-family="Times,serif" font-size="14.00" fill="#000000"> </text>
</g>
<!-- Blog -->
<g id="node3" class="node">
<title>Blog</title>
<path fill="none" stroke="#000000" d="M158.8254,-152.5C158.8254,-152.5 382.55,-152.5 382.55,-152.5 388.55,-152.5 394.55,-158.5 394.55,-164.5 394.55,-164.5 394.55,-254.5 394.55,-254.5 394.55,-260.5 388.55,-266.5 382.55,-266.5 382.55,-266.5 158.8254,-266.5 158.8254,-266.5 152.8254,-266.5 146.8254,-260.5 146.8254,-254.5 146.8254,-254.5 146.8254,-164.5 146.8254,-164.5 146.8254,-158.5 152.8254,-152.5 158.8254,-152.5"/>
<text text-anchor="middle" x="270.6877" y="-251.3" font-family="Times,serif" font-size="14.00" fill="#000000">Blog</text>
<polyline fill="none" stroke="#000000" points="146.8254,-244.5 394.55,-244.5 "/>
<text text-anchor="start" x="154.8254" y="-229.3" font-family="Times,serif" font-size="14.00" fill="#000000">id :integer</text>
<text text-anchor="start" x="154.8254" y="-215.3" font-family="Times,serif" font-size="14.00" fill="#000000">title :character varying</text>
<text text-anchor="start" x="154.8254" y="-201.3" font-family="Times,serif" font-size="14.00" fill="#000000">content :text</text>
<text text-anchor="start" x="154.8254" y="-187.3" font-family="Times,serif" font-size="14.00" fill="#000000">created_at :timestamp without time zone</text>
<text text-anchor="start" x="154.8254" y="-173.3" font-family="Times,serif" font-size="14.00" fill="#000000">updated_at :timestamp without time zone</text>
<text text-anchor="start" x="154.8254" y="-159.3" font-family="Times,serif" font-size="14.00" fill="#000000">user_id :integer</text>
</g>
<!-- Comment -->
<g id="node4" class="node">
<title>Comment</title>
<path fill="none" stroke="#000000" d="M234.8254,-.5C234.8254,-.5 458.55,-.5 458.55,-.5 464.55,-.5 470.55,-6.5 470.55,-12.5 470.55,-12.5 470.55,-102.5 470.55,-102.5 470.55,-108.5 464.55,-114.5 458.55,-114.5 458.55,-114.5 234.8254,-114.5 234.8254,-114.5 228.8254,-114.5 222.8254,-108.5 222.8254,-102.5 222.8254,-102.5 222.8254,-12.5 222.8254,-12.5 222.8254,-6.5 228.8254,-.5 234.8254,-.5"/>
<text text-anchor="middle" x="346.6877" y="-99.3" font-family="Times,serif" font-size="14.00" fill="#000000">Comment</text>
<polyline fill="none" stroke="#000000" points="222.8254,-92.5 470.55,-92.5 "/>
<text text-anchor="start" x="230.8254" y="-77.3" font-family="Times,serif" font-size="14.00" fill="#000000">id :integer</text>
<text text-anchor="start" x="230.8254" y="-63.3" font-family="Times,serif" font-size="14.00" fill="#000000">user_id :integer</text>
<text text-anchor="start" x="230.8254" y="-49.3" font-family="Times,serif" font-size="14.00" fill="#000000">blog_id :integer</text>
<text text-anchor="start" x="230.8254" y="-35.3" font-family="Times,serif" font-size="14.00" fill="#000000">content :text</text>
<text text-anchor="start" x="230.8254" y="-21.3" font-family="Times,serif" font-size="14.00" fill="#000000">created_at :timestamp without time zone</text>
<text text-anchor="start" x="230.8254" y="-7.3" font-family="Times,serif" font-size="14.00" fill="#000000">updated_at :timestamp without time zone</text>
</g>
<!-- Blog&#45;&gt;Comment -->
<g id="edge1" class="edge">
<title>Blog&#45;&gt;Comment</title>
<path fill="none" stroke="#04eb16" d="M302.8672,-145.1411C306.4342,-138.007 310.0713,-130.7328 313.6488,-123.5779"/>
<ellipse fill="none" stroke="#04eb16" cx="300.9924" cy="-148.8906" rx="4" ry="4"/>
<polygon fill="#04eb16" stroke="#04eb16" points="313.6663,-123.5427 322.1635,-116.6109 315.9024,-119.0706 318.1385,-114.5984 318.1385,-114.5984 318.1385,-114.5984 315.9024,-119.0706 314.1136,-112.5859 313.6663,-123.5427 313.6663,-123.5427"/>
</g>
<!-- Contact -->
<g id="node5" class="node">
<title>Contact</title>
<path fill="none" stroke="#000000" d="M820.8254,-436.5C820.8254,-436.5 1044.55,-436.5 1044.55,-436.5 1050.55,-436.5 1056.55,-442.5 1056.55,-448.5 1056.55,-448.5 1056.55,-538.5 1056.55,-538.5 1056.55,-544.5 1050.55,-550.5 1044.55,-550.5 1044.55,-550.5 820.8254,-550.5 820.8254,-550.5 814.8254,-550.5 808.8254,-544.5 808.8254,-538.5 808.8254,-538.5 808.8254,-448.5 808.8254,-448.5 808.8254,-442.5 814.8254,-436.5 820.8254,-436.5"/>
<text text-anchor="middle" x="932.6877" y="-535.3" font-family="Times,serif" font-size="14.00" fill="#000000">Contact</text>
<polyline fill="none" stroke="#000000" points="808.8254,-528.5 1056.55,-528.5 "/>
<text text-anchor="start" x="816.8254" y="-513.3" font-family="Times,serif" font-size="14.00" fill="#000000">id :integer</text>
<text text-anchor="start" x="816.8254" y="-499.3" font-family="Times,serif" font-size="14.00" fill="#000000">title :character varying</text>
<text text-anchor="start" x="816.8254" y="-485.3" font-family="Times,serif" font-size="14.00" fill="#000000">email :character varying</text>
<text text-anchor="start" x="816.8254" y="-471.3" font-family="Times,serif" font-size="14.00" fill="#000000">content :text</text>
<text text-anchor="start" x="816.8254" y="-457.3" font-family="Times,serif" font-size="14.00" fill="#000000">created_at :timestamp without time zone</text>
<text text-anchor="start" x="816.8254" y="-443.3" font-family="Times,serif" font-size="14.00" fill="#000000">updated_at :timestamp without time zone</text>
</g>
<!-- Poem -->
<g id="node6" class="node">
<title>Poem</title>
<polygon fill="none" stroke="#000000" points="1074.6877,-471.5 1074.6877,-515.5 1128.6877,-515.5 1128.6877,-471.5 1074.6877,-471.5"/>
<text text-anchor="middle" x="1101.6326" y="-500.3" font-family="Times,serif" font-size="14.00" fill="#000000">Poem</text>
<polyline fill="none" stroke="#000000" points="1074.6877,-493.5 1128.5774,-493.5 "/>
<text text-anchor="middle" x="1101.6326" y="-478.3" font-family="Times,serif" font-size="14.00" fill="#000000"> </text>
</g>
<!-- Relationship -->
<g id="node7" class="node">
<title>Relationship</title>
<path fill="none" stroke="#000000" d="M462.8254,-159.5C462.8254,-159.5 686.55,-159.5 686.55,-159.5 692.55,-159.5 698.55,-165.5 698.55,-171.5 698.55,-171.5 698.55,-247.5 698.55,-247.5 698.55,-253.5 692.55,-259.5 686.55,-259.5 686.55,-259.5 462.8254,-259.5 462.8254,-259.5 456.8254,-259.5 450.8254,-253.5 450.8254,-247.5 450.8254,-247.5 450.8254,-171.5 450.8254,-171.5 450.8254,-165.5 456.8254,-159.5 462.8254,-159.5"/>
<text text-anchor="middle" x="574.6877" y="-244.3" font-family="Times,serif" font-size="14.00" fill="#000000">Relationship</text>
<polyline fill="none" stroke="#000000" points="450.8254,-237.5 698.55,-237.5 "/>
<text text-anchor="start" x="458.8254" y="-222.3" font-family="Times,serif" font-size="14.00" fill="#000000">id :integer</text>
<text text-anchor="start" x="458.8254" y="-208.3" font-family="Times,serif" font-size="14.00" fill="#000000">follower_id :integer</text>
<text text-anchor="start" x="458.8254" y="-194.3" font-family="Times,serif" font-size="14.00" fill="#000000">followed_id :integer</text>
<text text-anchor="start" x="458.8254" y="-180.3" font-family="Times,serif" font-size="14.00" fill="#000000">created_at :timestamp without time zone</text>
<text text-anchor="start" x="458.8254" y="-166.3" font-family="Times,serif" font-size="14.00" fill="#000000">updated_at :timestamp without time zone</text>
</g>
<!-- User -->
<g id="node8" class="node">
<title>User</title>
<path fill="none" stroke="#000000" d="M311.053,-317.5C311.053,-317.5 606.3225,-317.5 606.3225,-317.5 612.3225,-317.5 618.3225,-323.5 618.3225,-329.5 618.3225,-329.5 618.3225,-657.5 618.3225,-657.5 618.3225,-663.5 612.3225,-669.5 606.3225,-669.5 606.3225,-669.5 311.053,-669.5 311.053,-669.5 305.053,-669.5 299.053,-663.5 299.053,-657.5 299.053,-657.5 299.053,-329.5 299.053,-329.5 299.053,-323.5 305.053,-317.5 311.053,-317.5"/>
<text text-anchor="middle" x="458.6877" y="-654.3" font-family="Times,serif" font-size="14.00" fill="#000000">User</text>
<polyline fill="none" stroke="#000000" points="299.053,-647.5 618.3225,-647.5 "/>
<text text-anchor="start" x="307.053" y="-632.3" font-family="Times,serif" font-size="14.00" fill="#000000">avatar :character varying</text>
<text text-anchor="start" x="307.053" y="-618.3" font-family="Times,serif" font-size="14.00" fill="#000000">email :character varying</text>
<text text-anchor="start" x="307.053" y="-604.3" font-family="Times,serif" font-size="14.00" fill="#000000">encrypted_password :character varying</text>
<text text-anchor="start" x="307.053" y="-590.3" font-family="Times,serif" font-size="14.00" fill="#000000">reset_password_token :character varying</text>
<text text-anchor="start" x="307.053" y="-576.3" font-family="Times,serif" font-size="14.00" fill="#000000">reset_password_sent_at :timestamp without time zone</text>
<text text-anchor="start" x="307.053" y="-562.3" font-family="Times,serif" font-size="14.00" fill="#000000">remember_created_at :timestamp without time zone</text>
<text text-anchor="start" x="307.053" y="-548.3" font-family="Times,serif" font-size="14.00" fill="#000000">sign_in_count :integer</text>
<text text-anchor="start" x="307.053" y="-534.3" font-family="Times,serif" font-size="14.00" fill="#000000">current_sign_in_at :timestamp without time zone</text>
<text text-anchor="start" x="307.053" y="-520.3" font-family="Times,serif" font-size="14.00" fill="#000000">last_sign_in_at :timestamp without time zone</text>
<text text-anchor="start" x="307.053" y="-506.3" font-family="Times,serif" font-size="14.00" fill="#000000">current_sign_in_ip :inet</text>
<text text-anchor="start" x="307.053" y="-492.3" font-family="Times,serif" font-size="14.00" fill="#000000">last_sign_in_ip :inet</text>
<text text-anchor="start" x="307.053" y="-478.3" font-family="Times,serif" font-size="14.00" fill="#000000">created_at :timestamp without time zone</text>
<text text-anchor="start" x="307.053" y="-464.3" font-family="Times,serif" font-size="14.00" fill="#000000">updated_at :timestamp without time zone</text>
<text text-anchor="start" x="307.053" y="-450.3" font-family="Times,serif" font-size="14.00" fill="#000000">name :character varying</text>
<text text-anchor="start" x="307.053" y="-436.3" font-family="Times,serif" font-size="14.00" fill="#000000">confirmation_token :character varying</text>
<text text-anchor="start" x="307.053" y="-422.3" font-family="Times,serif" font-size="14.00" fill="#000000">confirmed_at :timestamp without time zone</text>
<text text-anchor="start" x="307.053" y="-408.3" font-family="Times,serif" font-size="14.00" fill="#000000">confirmation_sent_at :timestamp without time zone</text>
<text text-anchor="start" x="307.053" y="-394.3" font-family="Times,serif" font-size="14.00" fill="#000000">unconfirmed_email :character varying</text>
<text text-anchor="start" x="307.053" y="-380.3" font-family="Times,serif" font-size="14.00" fill="#000000">admin :boolean</text>
<text text-anchor="start" x="307.053" y="-366.3" font-family="Times,serif" font-size="14.00" fill="#000000">uid :character varying</text>
<text text-anchor="start" x="307.053" y="-352.3" font-family="Times,serif" font-size="14.00" fill="#000000">provider :character varying</text>
<text text-anchor="start" x="307.053" y="-338.3" font-family="Times,serif" font-size="14.00" fill="#000000">image_url :character varying</text>
<text text-anchor="start" x="307.053" y="-324.3" font-family="Times,serif" font-size="14.00" fill="#000000">id :integer</text>
</g>
<!-- User&#45;&gt;Blog -->
<g id="edge2" class="edge">
<title>User&#45;&gt;Blog</title>
<path fill="none" stroke="#3a9482" d="M337.563,-310.5243C329.3888,-298.176 321.5139,-286.2799 314.2159,-275.2553"/>
<ellipse fill="none" stroke="#3a9482" cx="339.8226" cy="-313.9378" rx="4" ry="4"/>
<polygon fill="#3a9482" stroke="#3a9482" points="314.012,-274.9472 312.2444,-264.1247 311.252,-270.7779 308.4921,-266.6087 308.4921,-266.6087 308.4921,-266.6087 311.252,-270.7779 304.7397,-269.0926 314.012,-274.9472 314.012,-274.9472"/>
</g>
<!-- User&#45;&gt;Comment -->
<g id="edge3" class="edge">
<title>User&#45;&gt;Comment</title>
<path fill="none" stroke="#ebf47b" d="M442.202,-309.3956C434.0449,-257.4581 421.8655,-201.6106 403.6877,-152 400.1911,-142.4568 395.696,-132.811 390.7666,-123.5148"/>
<ellipse fill="none" stroke="#ebf47b" cx="442.8189" cy="-313.4083" rx="4" ry="4"/>
<polygon fill="#ebf47b" stroke="#ebf47b" points="390.7494,-123.4836 389.8675,-112.5532 388.3375,-119.1038 385.9257,-114.7239 385.9257,-114.7239 385.9257,-114.7239 388.3375,-119.1038 381.9838,-116.8946 390.7494,-123.4836 390.7494,-123.4836"/>
</g>
<!-- User&#45;&gt;Relationship -->
<g id="edge4" class="edge">
<title>User&#45;&gt;Relationship</title>
<path fill="none" stroke="#25c948" d="M517.7053,-309.9663C521.2536,-301.4601 524.9185,-293.0995 528.6877,-285 531.1769,-279.6511 533.9557,-274.2064 536.8809,-268.8152"/>
<ellipse fill="none" stroke="#25c948" cx="516.1387" cy="-313.7766" rx="4" ry="4"/>
<polygon fill="#25c948" stroke="#25c948" points="537.0321,-268.5449 545.8434,-262.0172 539.4744,-264.182 541.9168,-259.8191 541.9168,-259.8191 541.9168,-259.8191 539.4744,-264.182 537.9902,-257.621 537.0321,-268.5449 537.0321,-268.5449"/>
</g>
<!-- User&#45;&gt;Relationship -->
<g id="edge5" class="edge">
<title>User&#45;&gt;Relationship</title>
<path fill="none" stroke="#4f5c3b" d="M533.8519,-309.4775C539.729,-295.0887 545.3477,-281.3325 550.4352,-268.8769"/>
<ellipse fill="none" stroke="#4f5c3b" cx="532.1802" cy="-313.5702" rx="4" ry="4"/>
<polygon fill="#4f5c3b" stroke="#4f5c3b" points="550.4363,-268.8741 558.3835,-261.3182 552.3269,-264.2453 554.2176,-259.6166 554.2176,-259.6166 554.2176,-259.6166 552.3269,-264.2453 550.0517,-257.915 550.4363,-268.8741 550.4363,-268.8741"/>
<text text-anchor="middle" x="602.1672" y="-287.8" font-family="Times,serif" font-size="14.00" fill="#000000">reverse_relationships</text>
</g>
<!-- User&#45;&gt;User -->
<g id="edge6" class="edge">
<title>User&#45;&gt;User</title>
<path fill="none" stroke="#bf0f0c" d="M627.9457,-503.5849C633.2873,-500.864 636.3225,-497.5024 636.3225,-493.5 636.3225,-489.4976 633.2873,-486.136 627.9457,-483.4151"/>
<polygon fill="#bf0f0c" stroke="#bf0f0c" points="627.9156,-503.5961 616.9718,-502.9002 623.2349,-505.3544 618.5543,-507.1127 618.5543,-507.1127 618.5543,-507.1127 623.2349,-505.3544 620.1368,-511.3253 627.9156,-503.5961 627.9156,-503.5961"/>
<polygon fill="#bf0f0c" stroke="#bf0f0c" points="627.9156,-483.4039 620.1368,-475.6747 623.2349,-481.6456 618.5543,-479.8873 618.5543,-479.8873 618.5543,-479.8873 623.2349,-481.6456 616.9718,-484.0998 627.9156,-483.4039 627.9156,-483.4039"/>
<text text-anchor="middle" x="679.0916" y="-489.3" font-family="Times,serif" font-size="14.00" fill="#000000">followed_users</text>
</g>
<!-- User&#45;&gt;User -->
<g id="edge7" class="edge">
<title>User&#45;&gt;User</title>
<path fill="none" stroke="#f077fd" d="M628.5077,-530.7556C680.0385,-528.9003 721.8606,-516.4817 721.8606,-493.5 721.8606,-470.5183 680.0385,-458.0997 628.5077,-456.2444"/>
<polygon fill="#f077fd" stroke="#f077fd" points="628.4295,-530.7573 618.3306,-526.4838 623.4307,-530.87 618.432,-530.9827 618.432,-530.9827 618.432,-530.9827 623.4307,-530.87 618.5335,-535.4815 628.4295,-530.7573 628.4295,-530.7573"/>
<polygon fill="#f077fd" stroke="#f077fd" points="628.4295,-456.2427 618.5335,-451.5185 623.4307,-456.13 618.432,-456.0173 618.432,-456.0173 618.432,-456.0173 623.4307,-456.13 618.3306,-460.5162 628.4295,-456.2427 628.4295,-456.2427"/>
<text text-anchor="middle" x="748.2986" y="-489.3" font-family="Times,serif" font-size="14.00" fill="#000000">followers</text>
</g>
</g>
</svg>
